ISO-10303-21;
HEADER;
FILE_DESCRIPTION(('CATIA V5 STEP Exchange'),'2;1');

FILE_NAME('D:\\Test\\CatiaTest\\CatiaTest-Test.stp','2026-07-20T08:07:36+00:00',('none'),('none'),'CATIA Version 5 Release 21 GA (IN-10)','CATIA V5 STEP AP214','none');

FILE_SCHEMA(('AUTOMOTIVE_DESIGN { 1 0 10303 214 1 1 1 1 }'));

ENDSEC;
/* file written by CATIA V5R21 */
DATA;
#5=PRODUCT('\X2\6D4B8BD56570636E\X0\','','',(#2)) ;
#27=PRODUCT('Pyramid','\X2\90E84EF6\X0\','',(#2)) ;
#2=PRODUCT_CONTEXT(' ',#1,'mechanical') ;
#1=APPLICATION_CONTEXT('automotive design') ;
#34=GENERAL_PROPERTY('PartSource','','') ;
#40=GENERAL_PROPERTY('PartHeight','','') ;
#46=GENERAL_PROPERTY('PartType','','') ;
#52=GENERAL_PROPERTY('\X2\4E007EA752067C7B540D79F0\X0\','','') ;
#13=PRODUCT_DEFINITION('',' ',#6,#3) ;
#29=PRODUCT_DEFINITION('\X2\90E84EF6\X0\',' ',#28,#3) ;
#3=PRODUCT_DEFINITION_CONTEXT('part definition',#1,' ') ;
#16=PRODUCT_DEFINITION_SHAPE(' ',' ',#13) ;
#30=PRODUCT_DEFINITION_SHAPE(' ',' ',#29) ;
#210=PRODUCT_DEFINITION_SHAPE(' ',' ',#209) ;
#31=PROPERTY_DEFINITION('PartSource','',#29) ;
#37=PROPERTY_DEFINITION('PartHeight','',#29) ;
#43=PROPERTY_DEFINITION('PartType','',#29) ;
#49=PROPERTY_DEFINITION('\X2\4E007EA752067C7B540D79F0\X0\','',#29) ;
#204=PROPERTY_DEFINITION('attribute validation property','',#29) ;
#64=SHAPE_ASPECT('','',#30,.F.) ;
#71=SHAPE_ASPECT('','',#30,.F.) ;
#104=SHAPE_ASPECT('','',#30,.F.) ;
#128=SHAPE_ASPECT('','',#30,.F.) ;
#152=SHAPE_ASPECT('','',#30,.F.) ;
#176=SHAPE_ASPECT('','',#30,.F.) ;
#193=SHAPE_ASPECT('','',#30,.F.) ;
#32=REPRESENTATION('',(#36),#24) ;
#38=REPRESENTATION('',(#42),#24) ;
#44=REPRESENTATION('',(#48),#24) ;
#50=REPRESENTATION('',(#54),#24) ;
#205=REPRESENTATION('',(#207,#208),#24) ;
#222=MECHANICAL_DESIGN_GEOMETRIC_PRESENTATION_REPRESENTATION(' ',(#63),#22) ;
#15=SHAPE_REPRESENTATION(' ',(#214),#22) ;
#25=SHAPE_REPRESENTATION(' ',(#215),#24) ;
#33=PROPERTY_DEFINITION_REPRESENTATION(#31,#32) ;
#39=PROPERTY_DEFINITION_REPRESENTATION(#37,#38) ;
#45=PROPERTY_DEFINITION_REPRESENTATION(#43,#44) ;
#51=PROPERTY_DEFINITION_REPRESENTATION(#49,#50) ;
#206=PROPERTY_DEFINITION_REPRESENTATION(#204,#205) ;
#36=DESCRIPTIVE_REPRESENTATION_ITEM('','\X2\81EA5B9A4E496A21578B5E93\X0\') ;
#42=DESCRIPTIVE_REPRESENTATION_ITEM('','284.75') ;
#48=DESCRIPTIVE_REPRESENTATION_ITEM('','158') ;
#54=DESCRIPTIVE_REPRESENTATION_ITEM('','\X2\57FA672C4E097EF456FE5F62\X0\') ;
#213=ITEM_DEFINED_TRANSFORMATION(' ',' ',#215,#214) ;
#69=AXIS2_PLACEMENT_3D('Plane Axis2P3D',#66,#67,#68) ;
#102=AXIS2_PLACEMENT_3D('Plane Axis2P3D',#99,#100,#101) ;
#126=AXIS2_PLACEMENT_3D('Plane Axis2P3D',#123,#124,#125) ;
#150=AXIS2_PLACEMENT_3D('Plane Axis2P3D',#147,#148,#149) ;
#174=AXIS2_PLACEMENT_3D('Plane Axis2P3D',#171,#172,#173) ;
#191=AXIS2_PLACEMENT_3D('Plane Axis2P3D',#188,#189,#190) ;
#214=AXIS2_PLACEMENT_3D(' ',#217,#221,#220) ;
#215=AXIS2_PLACEMENT_3D(' ',#216,#219,#218) ;
#66=CARTESIAN_POINT('Axis2P3D Location',(66.6666666667,15.8509419383,21.8169499062)) ;
#72=CARTESIAN_POINT('Line Origine',(50.,5.49869750233E-015,25.)) ;
#76=CARTESIAN_POINT('Vertex',(-1.97215226305E-031,-3.21345971055E-015,1.04411635301E-015)) ;
#78=CARTESIAN_POINT('Vertex',(100.,-1.68753899743E-014,50.)) ;
#81=CARTESIAN_POINT('Line Origine',(100.,23.7764129074,32.7254248594)) ;
#85=CARTESIAN_POINT('Vertex',(100.,47.5528258148,15.4508497187)) ;
#88=CARTESIAN_POINT('Line Origine',(50.,23.7764129074,7.72542485937)) ;
#99=CARTESIAN_POINT('Axis2P3D Location',(66.6666666667,-15.8509419383,21.8169499062)) ;
#105=CARTESIAN_POINT('Line Origine',(50.,-23.7764129074,7.72542485937)) ;
#109=CARTESIAN_POINT('Vertex',(100.,-47.5528258148,15.4508497187)) ;
#112=CARTESIAN_POINT('Line Origine',(100.,-23.7764129074,32.7254248594)) ;
#123=CARTESIAN_POINT('Axis2P3D Location',(66.6666666667,-25.6473628098,-8.33333333333)) ;
#129=CARTESIAN_POINT('Line Origine',(50.,-14.6946313073,-20.2254248594)) ;
#133=CARTESIAN_POINT('Vertex',(100.,-29.3892626146,-40.4508497187)) ;
#136=CARTESIAN_POINT('Line Origine',(100.,-38.4710442147,-12.5)) ;
#147=CARTESIAN_POINT('Axis2P3D Location',(66.6666666667,-3.5527136788E-015,-26.9672331458)) ;
#153=CARTESIAN_POINT('Line Origine',(50.,14.6946313073,-20.2254248594)) ;
#157=CARTESIAN_POINT('Vertex',(100.,29.3892626146,-40.4508497187)) ;
#160=CARTESIAN_POINT('Line Origine',(100.,0.,-40.4508497187)) ;
#171=CARTESIAN_POINT('Axis2P3D Location',(66.6666666667,25.6473628098,-8.33333333333)) ;
#177=CARTESIAN_POINT('Line Origine',(100.,38.4710442147,-12.5)) ;
#188=CARTESIAN_POINT('Axis2P3D Location',(100.,15.8509419383,21.8169499062)) ;
#216=CARTESIAN_POINT('NONE',(0.,0.,0.)) ;
#217=CARTESIAN_POINT('NONE',(1000.,1000.,0.)) ;
#67=DIRECTION('Axis2P3D Direction',(0.374990901835,-0.544893675596,-0.74998180367)) ;
#68=DIRECTION('Axis2P3D XDirection',(0.927028491224,0.220414121842,0.30337401232)) ;
#73=DIRECTION('Vector Direction',(0.894427191,1.55847806069E-016,0.4472135955)) ;
#82=DIRECTION('Vector Direction',(0.,-0.809016994375,0.587785252292)) ;
#89=DIRECTION('Vector Direction',(0.894427191,0.425325404176,0.138196601125)) ;
#100=DIRECTION('Axis2P3D Direction',(0.374990901835,0.544893675596,-0.74998180367)) ;
#101=DIRECTION('Axis2P3D XDirection',(0.927028491224,-0.220414121842,0.30337401232)) ;
#106=DIRECTION('Vector Direction',(0.894427191,-0.425325404176,0.138196601125)) ;
#113=DIRECTION('Vector Direction',(0.,-0.809016994375,-0.587785252292)) ;
#124=DIRECTION('Axis2P3D Direction',(0.374990901835,0.88165648737,0.286467558058)) ;
#125=DIRECTION('Axis2P3D XDirection',(0.927028491224,-0.356637540742,-0.115878561403)) ;
#130=DIRECTION('Vector Direction',(0.894427191,-0.26286555606,-0.361803398875)) ;
#137=DIRECTION('Vector Direction',(0.,0.309016994375,-0.951056516295)) ;
#148=DIRECTION('Axis2P3D Direction',(0.374990901835,4.01855284728E-016,0.927028491224)) ;
#149=DIRECTION('Axis2P3D XDirection',(0.927028491224,-5.55111512313E-017,-0.374990901835)) ;
#154=DIRECTION('Vector Direction',(0.894427191,0.26286555606,-0.361803398875)) ;
#161=DIRECTION('Vector Direction',(0.,1.,-4.83539002034E-016)) ;
#172=DIRECTION('Axis2P3D Direction',(0.374990901835,-0.88165648737,0.286467558058)) ;
#173=DIRECTION('Axis2P3D XDirection',(0.927028491224,0.356637540742,-0.115878561403)) ;
#178=DIRECTION('Vector Direction',(0.,0.309016994375,0.951056516295)) ;
#189=DIRECTION('Axis2P3D Direction',(-1.,0.,0.)) ;
#190=DIRECTION('Axis2P3D XDirection',(0.,0.809016994375,-0.587785252292)) ;
#218=DIRECTION('NONE',(1.,0.,0.)) ;
#219=DIRECTION('NONE',(0.,0.,1.)) ;
#220=DIRECTION('NONE',(1.,0.,0.)) ;
#221=DIRECTION('NONE',(0.,0.,1.)) ;
#8=PRODUCT_RELATED_PRODUCT_CATEGORY('part',$,(#27)) ;
#11=PRODUCT_RELATED_PRODUCT_CATEGORY('part',$,(#5)) ;
#7=PRODUCT_CATEGORY('part','specification') ;
#10=PRODUCT_CATEGORY('part','specification') ;
#63=STYLED_ITEM(' ',(#62),#55) ;
#62=PRESENTATION_STYLE_ASSIGNMENT((#61)) ;
#61=SURFACE_STYLE_USAGE(.BOTH.,#60) ;
#60=SURFACE_SIDE_STYLE(' ',(#59)) ;
#59=SURFACE_STYLE_FILL_AREA(#58) ;
#58=FILL_AREA_STYLE(' ',(#57)) ;
#57=FILL_AREA_STYLE_COLOUR(' ',#56) ;
#74=VECTOR('Line Direction',#73,1.) ;
#83=VECTOR('Line Direction',#82,1.) ;
#90=VECTOR('Line Direction',#89,1.) ;
#107=VECTOR('Line Direction',#106,1.) ;
#114=VECTOR('Line Direction',#113,1.) ;
#131=VECTOR('Line Direction',#130,1.) ;
#138=VECTOR('Line Direction',#137,1.) ;
#155=VECTOR('Line Direction',#154,1.) ;
#162=VECTOR('Line Direction',#161,1.) ;
#179=VECTOR('Line Direction',#178,1.) ;
#21=UNCERTAINTY_MEASURE_WITH_UNIT(LENGTH_MEASURE(0.005),#17,'distance_accuracy_value','CONFUSED CURVE UNCERTAINTY') ;
#23=UNCERTAINTY_MEASURE_WITH_UNIT(LENGTH_MEASURE(0.005),#17,'distance_accuracy_value','CONFUSED CURVE UNCERTAINTY') ;
#211=CONTEXT_DEPENDENT_SHAPE_REPRESENTATION(#212,#210) ;
#203=SHAPE_REPRESENTATION_RELATIONSHIP(' ',' ',#25,#202) ;
#94=ORIENTED_EDGE('',*,*,#80,.T.) ;
#95=ORIENTED_EDGE('',*,*,#87,.F.) ;
#96=ORIENTED_EDGE('',*,*,#92,.F.) ;
#118=ORIENTED_EDGE('',*,*,#111,.T.) ;
#119=ORIENTED_EDGE('',*,*,#116,.F.) ;
#120=ORIENTED_EDGE('',*,*,#80,.F.) ;
#142=ORIENTED_EDGE('',*,*,#135,.T.) ;
#143=ORIENTED_EDGE('',*,*,#140,.F.) ;
#144=ORIENTED_EDGE('',*,*,#111,.F.) ;
#166=ORIENTED_EDGE('',*,*,#159,.T.) ;
#167=ORIENTED_EDGE('',*,*,#164,.F.) ;
#168=ORIENTED_EDGE('',*,*,#135,.F.) ;
#183=ORIENTED_EDGE('',*,*,#92,.T.) ;
#184=ORIENTED_EDGE('',*,*,#181,.F.) ;
#185=ORIENTED_EDGE('',*,*,#159,.F.) ;
#195=ORIENTED_EDGE('',*,*,#164,.T.) ;
#196=ORIENTED_EDGE('',*,*,#181,.T.) ;
#197=ORIENTED_EDGE('',*,*,#87,.T.) ;
#198=ORIENTED_EDGE('',*,*,#116,.T.) ;
#199=ORIENTED_EDGE('',*,*,#140,.T.) ;
#65=CLOSED_SHELL('Closed Shell',(#98,#122,#146,#170,#187,#201)) ;
#202=ADVANCED_BREP_SHAPE_REPRESENTATION('NONE',(#55),#24) ;
#98=ADVANCED_FACE('Pyramid',(#97),#70,.F.) ;
#122=ADVANCED_FACE('Pyramid',(#121),#103,.F.) ;
#146=ADVANCED_FACE('Pyramid',(#145),#127,.F.) ;
#170=ADVANCED_FACE('Pyramid',(#169),#151,.F.) ;
#187=ADVANCED_FACE('Pyramid',(#186),#175,.F.) ;
#201=ADVANCED_FACE('Pyramid',(#200),#192,.F.) ;
#4=APPLICATION_PROTOCOL_DEFINITION('international standard','automotive_design',2001,#1) ;
#55=MANIFOLD_SOLID_BREP('Pyramid',#65) ;
#56=COLOUR_RGB('Colour',0.823529411765,0.823529411765,1.) ;
#80=EDGE_CURVE('',#77,#79,#75,.T.) ;
#87=EDGE_CURVE('',#86,#79,#84,.T.) ;
#92=EDGE_CURVE('',#77,#86,#91,.T.) ;
#111=EDGE_CURVE('',#77,#110,#108,.T.) ;
#116=EDGE_CURVE('',#79,#110,#115,.T.) ;
#135=EDGE_CURVE('',#77,#134,#132,.T.) ;
#140=EDGE_CURVE('',#110,#134,#139,.T.) ;
#159=EDGE_CURVE('',#77,#158,#156,.T.) ;
#164=EDGE_CURVE('',#134,#158,#163,.T.) ;
#181=EDGE_CURVE('',#158,#86,#180,.T.) ;
#93=EDGE_LOOP('',(#94,#95,#96)) ;
#117=EDGE_LOOP('',(#118,#119,#120)) ;
#141=EDGE_LOOP('',(#142,#143,#144)) ;
#165=EDGE_LOOP('',(#166,#167,#168)) ;
#182=EDGE_LOOP('',(#183,#184,#185)) ;
#194=EDGE_LOOP('',(#195,#196,#197,#198,#199)) ;
#97=FACE_OUTER_BOUND('',#93,.T.) ;
#121=FACE_OUTER_BOUND('',#117,.T.) ;
#145=FACE_OUTER_BOUND('',#141,.T.) ;
#169=FACE_OUTER_BOUND('',#165,.T.) ;
#186=FACE_OUTER_BOUND('',#182,.T.) ;
#200=FACE_OUTER_BOUND('',#194,.T.) ;
#35=GENERAL_PROPERTY_ASSOCIATION('','',#34,#31) ;
#41=GENERAL_PROPERTY_ASSOCIATION('','',#40,#37) ;
#47=GENERAL_PROPERTY_ASSOCIATION('','',#46,#43) ;
#53=GENERAL_PROPERTY_ASSOCIATION('','',#52,#49) ;
#75=LINE('Line',#72,#74) ;
#84=LINE('Line',#81,#83) ;
#91=LINE('Line',#88,#90) ;
#108=LINE('Line',#105,#107) ;
#115=LINE('Line',#112,#114) ;
#132=LINE('Line',#129,#131) ;
#139=LINE('Line',#136,#138) ;
#156=LINE('Line',#153,#155) ;
#163=LINE('Line',#160,#162) ;
#180=LINE('Line',#177,#179) ;
#209=NEXT_ASSEMBLY_USAGE_OCCURRENCE('\X2\91D15B575854\X0\','\X2\91D15B575854\X0\','',#13,#29,' ') ;
#70=PLANE('',#69) ;
#103=PLANE('',#102) ;
#127=PLANE('',#126) ;
#151=PLANE('',#150) ;
#175=PLANE('',#174) ;
#192=PLANE('',#191) ;
#19=PLANE_ANGLE_MEASURE_WITH_UNIT(PLANE_ANGLE_MEASURE(0.0174532925199),#18) ;
#9=PRODUCT_CATEGORY_RELATIONSHIP(' ',' ',#7,#8) ;
#12=PRODUCT_CATEGORY_RELATIONSHIP(' ',' ',#10,#11) ;
#6=PRODUCT_DEFINITION_FORMATION_WITH_SPECIFIED_SOURCE('',' ',#5,.NOT_KNOWN.) ;
#28=PRODUCT_DEFINITION_FORMATION_WITH_SPECIFIED_SOURCE('',' ',#27,.NOT_KNOWN.) ;
#14=SHAPE_DEFINITION_REPRESENTATION(#16,#15) ;
#26=SHAPE_DEFINITION_REPRESENTATION(#30,#25) ;
#207=VALUE_REPRESENTATION_ITEM('part user attributes',COUNT_MEASURE(4.)) ;
#208=VALUE_REPRESENTATION_ITEM('text user attributes',COUNT_MEASURE(4.)) ;
#77=VERTEX_POINT('',#76) ;
#79=VERTEX_POINT('',#78) ;
#86=VERTEX_POINT('',#85) ;
#110=VERTEX_POINT('',#109) ;
#134=VERTEX_POINT('',#133) ;
#158=VERTEX_POINT('',#157) ;
#17=(LENGTH_UNIT()NAMED_UNIT(*)SI_UNIT(.MILLI.,.METRE.)) ;
#18=(NAMED_UNIT(*)PLANE_ANGLE_UNIT()SI_UNIT($,.RADIAN.)) ;
#20=(NAMED_UNIT(*)SI_UNIT($,.STERADIAN.)SOLID_ANGLE_UNIT()) ;
#22=(GEOMETRIC_REPRESENTATION_CONTEXT(3)GLOBAL_UNCERTAINTY_ASSIGNED_CONTEXT((#21))GLOBAL_UNIT_ASSIGNED_CONTEXT((#17,#18,#20))REPRESENTATION_CONTEXT(' ',' ')) ;
#24=(GEOMETRIC_REPRESENTATION_CONTEXT(3)GLOBAL_UNCERTAINTY_ASSIGNED_CONTEXT((#23))GLOBAL_UNIT_ASSIGNED_CONTEXT((#17,#18,#20))REPRESENTATION_CONTEXT(' ',' ')) ;
#212=(REPRESENTATION_RELATIONSHIP(' ',' ',#25,#15)REPRESENTATION_RELATIONSHIP_WITH_TRANSFORMATION(#213)SHAPE_REPRESENTATION_RELATIONSHIP()) ;
ENDSEC;
END-ISO-10303-21;
