DBRep_DrawableShape

CASCADE Topology V3, (c) Open Cascade
Locations 3
1
              1               0               0               0 
              0               1               0               0 
              0               0               1               0 
1
              1               0               0           3.175 
              0               1               0               5 
              0               0               1              -0 
2  1 1 2 1 0
Curve2ds 2
7 0 0  3 25 23  -1.2231025665337853e-06 1.6776182665267925e-09  -1.1818094219755378e-06 0.015151516822502376  -1.1199248434373382e-06 0.045454547111549171  -1.0789574617618722e-06 0.09090909255044366  -1.0911157125345808e-06 0.13636363800309792  -1.1173744703539177e-06 0.18181818347463197  -1.318837463312005e-06 0.22727272897669504  -1.1486049508322445e-06 0.27272727438342304  -1.0965030736395186e-06 0.31818181982428539  -1.0780654573731022e-06 0.36363636528485854  -1.100906093767658e-06 0.40909091073948756  -1.2007447039682758e-06 0.45454545621248765  -1.2574828879176119e-06 0.50000000168595216  -1.1079391435633771e-06 0.54545454710941244  -1.0821690853568094e-06 0.59090909255101598  -1.0902549180281481e-06 0.63636363800294415  -1.1176060247851207e-06 0.68181818347467349  -1.3187720400936035e-06 0.72727272897668227  -1.1486350892758319e-06 0.77272727438343281  -1.0964479430837556e-06 0.81818181982425853  -1.0782558411524015e-06 0.86363636528495491  -1.1001996892069483e-06 0.90909091073912773  -1.2033799384314765e-06 0.95454545621383013  -1.2328922158941069e-06 0.98484848652523849  -1.2231025665337853e-06 1.000000001677618 
 0.99999999862266009 4 1.0454545440772056 1 1.090909089531751 1 1.1363636349862964 1 1.1818181804408419 1 1.2272727258953873 1 1.2727272713499329 1 1.3181818168044783 1 1.3636363622590237 1 1.4090909077135692 1 1.4545454531681146 1 1.49999999862266 1 1.5454545440772054 1 1.5909090895317508 1 1.6363636349862962 1 1.6818181804408419 1 1.7272727258953873 1 1.7727272713499327 1 1.8181818168044783 1 1.8636363622590237 1 1.9090909077135692 1 1.9545454531681146 1 1.99999999862266 4
1 1.000000000000079 -1.1102230246251565e-16 -2.3092638950943887e-14 1 
Curves 1
7 0 1  3 32 17  -18.968062206632101 7.7145839123051498 -31.031397563569499  -16.343337565092501 12.3368353335894 -31.031397563569499  -14.5719609932788 14.3861093289681 -31.031397563569499  -10.378172579330901 17.6520741763762 -31.031397563569499  -7.9574108138542199 18.867480010701499 -31.031397563569499  -2.8330248967348499 20.2799447422606 -31.031397563569499  -0.13141697212893599 20.476447894937699 -31.031397563569499  5.1434251449544197 19.820377559292702 -31.031397563569499  7.7145839123051498 18.968062206632101 -31.031397563569499  12.3368353335894 16.343337565092501 -31.031397563569499  14.3861093289681 14.5719609932788 -31.031397563569499  17.6520741763762 10.378172579330901 -31.031397563569499  18.867480010701499 7.9574108138542199 -31.031397563569499  20.2799447422606 2.8330248967348499 -31.031397563569499  20.476447894937699 0.13141697212893699 -31.031397563569499  19.820377559292702 -5.1434251449544197 -31.031397563569499  18.968062206632101 -7.7145839123051498 -31.031397563569499  16.343337565092501 -12.3368353335894 -31.031397563569499  14.5719609932788 -14.3861093289681 -31.031397563569499  10.378172579330901 -17.6520741763762 -31.031397563569499  7.9574108138542199 -18.867480010701499 -31.031397563569499  2.8330248967348499 -20.2799447422606 -31.031397563569499  0.13141697212894399 -20.476447894937699 -31.031397563569499  -5.1434251449544099 -19.820377559292702 -31.031397563569499  -7.7145839123051498 -18.968062206632101 -31.031397563569499  -12.3368353335894 -16.343337565092501 -31.031397563569499  -14.3861093289681 -14.5719609932788 -31.031397563569499  -17.6520741763762 -10.378172579330901 -31.031397563569499  -18.867480010701499 -7.9574108138542199 -31.031397563569499  -20.2799447422606 -2.8330248967348601 -31.031397563569499  -20.476447894937699 -0.13141697212894601 -31.031397563569499  -19.820377559292702 5.1434251449544099 -31.031397563569499 
 0 2 0.0625 2 0.125 2 0.1875 2 0.25 2 0.3125 2 0.375 2 0.4375 2 0.5 2 0.5625 2 0.625 2 0.6875 2 0.75 2 0.8125 2 0.875 2 0.9375 2 1 2
Polygon3D 0
PolygonOnTriangulations 0
Surfaces 2
10 0 1 0 1
9 0 0 0 1 3 3 4 32 2 17 -18.968061394051599 7.7145831989303 -31.031391409150899  -16.343336963504498 12.3368344351003 -31.031391409150899  -14.571960515549099 14.386108358934599 -31.031391409150899  -10.378172367372899 17.652073116062802 -31.031391409150899  -7.9574107437052204 18.867478931688101 -31.031391409150899  -2.8330251066756098 20.279943681545902 -31.031391409150899  -0.13141732024026601 20.476446871214499 -31.031391409150899  5.1434245450765097 19.820376659661001 -31.031391409150899  7.7145831989303 18.968061394051599 -31.031391409150899  12.3368344351003 16.343336963504498 -31.031391409150899  14.386108358934599 14.571960515549099 -31.031391409150899  17.652073116062802 10.378172367372899 -31.031391409150899  18.867478931688101 7.9574107437052302 -31.031391409150899  20.279943681545902 2.8330251066756098 -31.031391409150899  20.476446871214499 0.13141732024026601 -31.031391409150899  19.820376659661001 -5.1434245450765097 -31.031391409150899  18.968061394051599 -7.7145831989303 -31.031391409150899  16.343336963504498 -12.3368344351003 -31.031391409150899  14.571960515549099 -14.386108358934599 -31.031391409150899  10.378172367372899 -17.652073116062802 -31.031391409150899  7.9574107437052302 -18.867478931688101 -31.031391409150899  2.8330251066756098 -20.279943681545902 -31.031391409150899  0.131417320240274 -20.476446871214499 -31.031391409150899  -5.1434245450764999 -19.820376659661001 -31.031391409150899  -7.7145831989302902 -18.968061394051599 -31.031391409150899  -12.3368344351003 -16.343336963504498 -31.031391409150899  -14.386108358934599 -14.571960515549099 -31.031391409150899  -17.652073116062802 -10.378172367372899 -31.031391409150899  -18.867478931688101 -7.9574107437052302 -31.031391409150899  -20.279943681545902 -2.8330251066756098 -31.031391409150899  -20.476446871214499 -0.131417320240275 -31.031391409150899  -19.820376659661001 5.1434245450764999 -31.031391409150899  
-18.941798744653699 7.7151925412569202 -30.996200994270598  -16.317802321258402 12.3306635278059 -30.996200994270598  -14.5474638060878 14.376621037023799 -30.996200994270598  -10.356942938015999 17.636600256577498 -30.996200994270598  -7.9384093761328103 18.849339304298098 -30.996200994270598  -2.8193328783822 20.257524472464599 -30.996200994270598  -0.120804080521804 20.452416532179299 -30.996200994270598  5.1474950546691201 19.7944242223356 -30.996200994270598  7.71519254125693 18.941798744653699 -30.996200994270598  12.3306635278059 16.317802321258402 -30.996200994270598  14.376621037023799 14.5474638060878 -30.996200994270598  17.636600256577498 10.356942938015999 -30.996200994270598  18.849339304298098 7.9384093761328103 -30.996200994270598  20.257524472464599 2.8193328783822 -30.996200994270598  20.452416532179299 0.120804080521804 -30.996200994270598  19.7944242223356 -5.1474950546691201 -30.996200994270598  18.941798744653699 -7.7151925412569202 -30.996200994270598  16.317802321258402 -12.3306635278059 -30.996200994270598  14.5474638060878 -14.376621037023799 -30.996200994270598  10.356942938015999 -17.636600256577498 -30.996200994270598  7.9384093761328103 -18.849339304298098 -30.996200994270598  2.8193328783822098 -20.257524472464599 -30.996200994270598  0.12080408052181101 -20.452416532179299 -30.996200994270598  -5.1474950546691103 -19.7944242223356 -30.996200994270598  -7.7151925412569202 -18.941798744653699 -30.996200994270598  -12.3306635278059 -16.317802321258402 -30.996200994270598  -14.376621037023799 -14.5474638060878 -30.996200994270598  -17.636600256577498 -10.356942938015999 -30.996200994270598  -18.849339304298098 -7.9384093761328103 -30.996200994270598  -20.257524472464599 -2.8193328783822098 -30.996200994270598  -20.452416532179299 -0.120804080521813 -30.996200994270598  -19.7944242223356 5.1474950546691103 -30.996200994270598  
-18.917598181815301 7.7156402558157904 -30.965168373840399  -16.294301890659401 12.3248671969251 -30.965168373840399  -14.524934068462001 14.367773516889001 -30.965168373840399  -10.337449530976899 17.622251919669399 -30.965168373840399  -7.92098041204064 18.832543504207202 -30.965168373840399  -2.8068141894166101 20.236808533755401 -30.965168373840399  -0.11112929175229599 20.430229460441701 -30.965168373840399  5.1511331686483999 19.770494495703399 -30.965168373840399  7.7156402558157904 18.917598181815301 -30.965168373840399  12.3248671969251 16.294301890659401 -30.965168373840399  14.367773516889001 14.524934068462001 -30.965168373840399  17.622251919669399 10.337449530976899 -30.965168373840399  18.832543504207202 7.92098041204064 -30.965168373840399  20.236808533755401 2.8068141894166101 -30.965168373840399  20.430229460441701 0.11112929175229699 -30.965168373840399  19.770494495703399 -5.1511331686483901 -30.965168373840399  18.917598181815301 -7.7156402558157904 -30.965168373840399  16.294301890659401 -12.3248671969251 -30.965168373840399  14.524934068462001 -14.367773516889001 -30.965168373840399  10.337449530976899 -17.622251919669399 -30.965168373840399  7.92098041204064 -18.832543504207202 -30.965168373840399  2.8068141894166199 -20.236808533755401 -30.965168373840399  0.111129291752305 -20.430229460441701 -30.965168373840399  -5.1511331686483901 -19.770494495703399 -30.965168373840399  -7.7156402558157904 -18.917598181815301 -30.965168373840399  -12.3248671969251 -16.294301890659401 -30.965168373840399  -14.367773516889001 -14.524934068462001 -30.965168373840399  -17.622251919669399 -10.337449530976899 -30.965168373840399  -18.832543504207202 -7.92098041204064 -30.965168373840399  -20.236808533755401 -2.8068141894166199 -30.965168373840399  -20.430229460441701 -0.111129291752306 -30.965168373840399  -19.770494495703399 5.1511331686483901 -30.965168373840399  
-18.902213714620402 7.7156376498086798 -30.943438650214301  -16.279436430056698 12.3209048846289 -30.943438650214301  -14.5107216713778 14.3618837285411 -30.943438650214301  -10.3252319474544 17.612902454950301 -30.943438650214301  -7.9101037936874903 18.8216632004034 -30.943438650214301  -2.7991044993129099 20.223495287863901 -30.943438650214301  -0.105244318677678 20.416015068806001 -30.943438650214301  5.1531612349035401 19.755244289641599 -30.943438650214301  7.7156376498086896 18.902213714620402 -30.943438650214301  12.320904884628799 16.279436430056698 -30.943438650214301  14.3618837285411 14.5107216713778 -30.943438650214301  17.612902454950301 10.3252319474544 -30.943438650214301  18.8216632004034 7.9101037936874903 -30.943438650214301  20.223495287863901 2.7991044993129099 -30.943438650214301  20.416015068806001 0.105244318677678 -30.943438650214301  19.755244289641599 -5.1531612349035401 -30.943438650214301  18.902213714620402 -7.7156376498086798 -30.943438650214301  16.279436430056698 -12.320904884628799 -30.943438650214301  14.5107216713778 -14.3618837285411 -30.943438650214301  10.325231947454499 -17.612902454950301 -30.943438650214301  7.9101037936874903 -18.8216632004034 -30.943438650214301  2.7991044993129202 -20.223495287863901 -30.943438650214301  0.10524431867768699 -20.416015068806001 -30.943438650214301  -5.1531612349035303 -19.755244289641599 -30.943438650214301  -7.7156376498086798 -18.902213714620402 -30.943438650214301  -12.3209048846289 -16.279436430056698 -30.943438650214301  -14.3618837285411 -14.5107216713778 -30.943438650214301  -17.612902454950301 -10.3252319474544 -30.943438650214301  -18.8216632004034 -7.9101037936874903 -30.943438650214301  -20.223495287863901 -2.7991044993129202 -30.943438650214301  -20.416015068806001 -0.10524431867768801 -30.943438650214301  -19.755244289641599 5.1531612349035303 -30.943438650214301  

0 4
1 4

0 2
0.0625 2
0.125 2
0.1875 2
0.25 2
0.3125 2
0.375 2
0.4375 2
0.5 2
0.5625 2
0.625 2
0.6875 2
0.75 2
0.8125 2
0.875 2
0.9375 2
1 2

10 0 1 0.99999999862266009 1.99999999862266
9 0 0 0 1 3 3 4 32 2 17 -19.001929690615299 7.7140392694509297 -31.076393493798399  -16.3762041657289 12.345026161984601 -31.076393493798399  -14.603458894345501 14.3985666695988 -31.076393493798399  -10.4054028646379 17.6722190186265 -31.076393493798399  -7.9817438620960299 18.891042817632201 -31.076393493798399  -2.8504733026176599 20.308976728746899 -31.076393493798399  -0.14488068153074901 20.507528944410598 -31.076393493798399  5.1384149801212997 19.853876833248101 -31.076393493798399  7.7140392694509403 19.001929690615299 -31.076393493798399  12.345026161984601 16.3762041657289 -31.076393493798399  14.3985666695988 14.603458894345501 -31.076393493798399  17.6722190186265 10.4054028646379 -31.076393493798399  18.891042817632201 7.9817438620960299 -31.076393493798399  20.308976728746899 2.8504733026176599 -31.076393493798399  20.507528944410598 0.14488068153074901 -31.076393493798399  19.853876833248101 -5.1384149801212997 -31.076393493798399  19.001929690615299 -7.7140392694509403 -31.076393493798399  16.3762041657289 -12.345026161984601 -31.076393493798399  14.603458894345501 -14.3985666695988 -31.076393493798399  10.4054028646379 -17.6722190186265 -31.076393493798399  7.9817438620960299 -18.891042817632201 -31.076393493798399  2.8504733026176599 -20.308976728746899 -31.076393493798399  0.14488068153075701 -20.507528944410598 -31.076393493798399  -5.1384149801212899 -19.853876833248101 -31.076393493798399  -7.7140392694509297 -19.001929690615299 -31.076393493798399  -12.345026161984601 -16.3762041657289 -31.076393493798399  -14.3985666695988 -14.603458894345501 -31.076393493798399  -17.6722190186265 -10.4054028646379 -31.076393493798399  -18.891042817632201 -7.9817438620960299 -31.076393493798399  -20.308976728746899 -2.8504733026176599 -31.076393493798399  -20.507528944410598 -0.144880681530758 -31.076393493798399  -19.853876833248101 5.1384149801212899 -31.076393493798399  
-18.990257473024201 7.71424179318592 -31.060949473050901  -16.364873082886799 12.3422175607342 -31.060949473050901  -14.592597668936 14.3942870128413 -31.060949473050901  -10.396009114285601 17.665287991741899 -31.060949473050901  -7.9733471519794996 18.882932519328399 -31.060949473050901  -2.84444699809164 20.298978462241301 -31.060949473050901  -0.14022680970606399 20.496822723957202 -31.060949473050901  5.1401563885854902 19.842333472562501 -31.060949473050901  7.71424179318592 18.990257473024201 -31.060949473050901  12.3422175607342 16.364873082886799 -31.060949473050901  14.3942870128413 14.592597668936 -31.060949473050901  17.665287991741899 10.396009114285601 -31.060949473050901  18.882932519328399 7.9733471519794996 -31.060949473050901  20.298978462241301 2.84444699809164 -31.060949473050901  20.496822723957202 0.14022680970606399 -31.060949473050901  19.842333472562501 -5.1401563885854902 -31.060949473050901  18.990257473024201 -7.71424179318592 -31.060949473050901  16.364873082886799 -12.3422175607342 -31.060949473050901  14.592597668936 -14.3942870128413 -31.060949473050901  10.396009114285601 -17.665287991741899 -31.060949473050901  7.9733471519794996 -18.882932519328399 -31.060949473050901  2.8444469980916498 -20.298978462241301 -31.060949473050901  0.14022680970607099 -20.496822723957202 -31.060949473050901  -5.1401563885854804 -19.842333472562501 -31.060949473050901  -7.71424179318592 -18.990257473024201 -31.060949473050901  -12.3422175607342 -16.364873082886799 -31.060949473050901  -14.3942870128413 -14.592597668936 -31.060949473050901  -17.665287991741899 -10.396009114285601 -31.060949473050901  -18.882932519328399 -7.9733471519794996 -31.060949473050901  -20.298978462241301 -2.8444469980916498 -31.060949473050901  -20.496822723957202 -0.14022680970607199 -31.060949473050901  -19.842333472562501 5.1401563885854804 -31.060949473050901  
-18.978410268447501 7.7144433229181004 -31.045313867487  -16.353373164592998 12.3393629592292 -31.045313867487  -14.581575157020399 14.3899394731247 -31.045313867487  -10.3864769838504 17.658249855633301 -31.045313867487  -7.9648274102449399 18.8746977836743 -31.045313867487  -2.8383338359647898 20.288828283950899 -31.045313867487  -0.135506891599945 20.485954456220899 -31.045313867487  5.1419199088861198 19.8306165247233 -31.045313867487  7.7144433229181004 18.978410268447501 -31.045313867487  12.3393629592292 16.353373164592998 -31.045313867487  14.3899394731247 14.581575157020399 -31.045313867487  17.658249855633301 10.3864769838504 -31.045313867487  18.8746977836743 7.9648274102449399 -31.045313867487  20.288828283950899 2.8383338359647898 -31.045313867487  20.485954456220899 0.135506891599946 -31.045313867487  19.8306165247233 -5.1419199088861198 -31.045313867487  18.978410268447501 -7.7144433229181004 -31.045313867487  16.353373164592998 -12.3393629592292 -31.045313867487  14.581575157020399 -14.3899394731247 -31.045313867487  10.3864769838504 -17.658249855633301 -31.045313867487  7.9648274102449399 -18.8746977836743 -31.045313867487  2.8383338359647898 -20.288828283950899 -31.045313867487  0.13550689159995399 -20.485954456220899 -31.045313867487  -5.1419199088861198 -19.8306165247233 -31.045313867487  -7.7144433229181004 -18.978410268447501 -31.045313867487  -12.3393629592292 -16.353373164592998 -31.045313867487  -14.3899394731247 -14.581575157020399 -31.045313867487  -17.658249855633301 -10.386476983850301 -31.045313867487  -18.8746977836743 -7.9648274102449399 -31.045313867487  -20.288828283950899 -2.8383338359647898 -31.045313867487  -20.485954456220899 -0.13550689159995499 -31.045313867487  -19.8306165247233 5.1419199088861101 -31.045313867487  
-18.968062206632101 7.7145839123051498 -31.031397563569499  -16.343337565092501 12.3368353335894 -31.031397563569499  -14.5719609932788 14.3861093289681 -31.031397563569499  -10.378172579330901 17.6520741763762 -31.031397563569499  -7.9574108138542199 18.867480010701499 -31.031397563569499  -2.8330248967348499 20.2799447422606 -31.031397563569499  -0.13141697212893599 20.476447894937699 -31.031397563569499  5.1434251449544197 19.820377559292702 -31.031397563569499  7.7145839123051498 18.968062206632101 -31.031397563569499  12.3368353335894 16.343337565092501 -31.031397563569499  14.3861093289681 14.5719609932788 -31.031397563569499  17.6520741763762 10.378172579330901 -31.031397563569499  18.867480010701499 7.9574108138542199 -31.031397563569499  20.2799447422606 2.8330248967348499 -31.031397563569499  20.476447894937699 0.13141697212893699 -31.031397563569499  19.820377559292702 -5.1434251449544197 -31.031397563569499  18.968062206632101 -7.7145839123051498 -31.031397563569499  16.343337565092501 -12.3368353335894 -31.031397563569499  14.5719609932788 -14.3861093289681 -31.031397563569499  10.378172579330901 -17.6520741763762 -31.031397563569499  7.9574108138542199 -18.867480010701499 -31.031397563569499  2.8330248967348499 -20.2799447422606 -31.031397563569499  0.13141697212894399 -20.476447894937699 -31.031397563569499  -5.1434251449544099 -19.820377559292702 -31.031397563569499  -7.7145839123051498 -18.968062206632101 -31.031397563569499  -12.3368353335894 -16.343337565092501 -31.031397563569499  -14.3861093289681 -14.5719609932788 -31.031397563569499  -17.6520741763762 -10.378172579330901 -31.031397563569499  -18.867480010701499 -7.9574108138542199 -31.031397563569499  -20.2799447422606 -2.8330248967348601 -31.031397563569499  -20.476447894937699 -0.13141697212894601 -31.031397563569499  -19.820377559292702 5.1434251449544099 -31.031397563569499  

0 4
1 4

0 2
0.0625 2
0.125 2
0.1875 2
0.25 2
0.3125 2
0.375 2
0.4375 2
0.5 2
0.5625 2
0.625 2
0.6875 2
0.75 2
0.8125 2
0.875 2
0.9375 2
1 2

Triangulations 0

TShapes 3
Ve
1e-05
-17.6556999726256 10.0257094701534 -31.0313975635695
0 0

0101101
*
Ve
1e-05
-17.6556992738082 10.0257088272188 -31.0313915382754
0 0

0101101
*
Ed
 6.11186070561585e-06 1 1 0
1  1 0 0.99999999862266 1.99999999694504
2  1 1 0 0.99999999862266 1.99999999694504
2  2 2 0 0.99999999862266 1.99999999694504
4 G1 1 0 2 0
0

0101000
+3 0 -2 0 *

-1 3 